# xmcd
#
# Track frame offsets: 
#        150
#        14761
#        36220
#        53261
#        67601
#        86292
#        103800
#        124368
#        145958
#        162824
#        186849
#        207096
#        222685
#        236116
#        254214
#        271037
#        283170
#        300802
#        323902
#        334090
#
# Disc length: 4688 seconds
#
# Revision: 3
# Processed by: cddbd v1.5.2PL0 Copyright (c) Steve Scherf et al.
# Submitted via: ExactAudioCopyFreeDBPlugin 1.0
#
DISCID=26124e14
DTITLE=STS - Das Beste aus über 30 Jahren Bandgeschichte - CD 1
DYEAR=2011
DGENRE=Austropop
TTITLE0=Out of Fürstenfeld
TTITLE1=Dein eig'ner Weg
TTITLE2=Die Zeit
TTITLE3=Gö, du bleibst heut Nacht bei mir
TTITLE4=Überdosis G'fühl
TTITLE5=Sie wissen all's besser
TTITLE6=Ka Zeit mehr
TTITLE7=Grossvater
TTITLE8=Für a paar Stunden
TTITLE9=Weit is die Welt
TTITLE10=Die Kinder san dran
TTITLE11=Fahr auf's Land mit mir
TTITLE12=Da kummt die Sun
TTITLE13=Kalt und kälter
TTITLE14=Einfach
TTITLE15=Irgendwo
TTITLE16=Wohin die Reise
TTITLE17=Die ganze Welt
TTITLE18=Red ma uns das aus
TTITLE19=Dankschön
EXTD=YEAR: 2011
EXTT0=
EXTT1=
EXTT2=
EXTT3=
EXTT4=
EXTT5=
EXTT6=
EXTT7=
EXTT8=
EXTT9=
EXTT10=
EXTT11=
EXTT12=
EXTT13=
EXTT14=
EXTT15=
EXTT16=
EXTT17=
EXTT18=
EXTT19=
PLAYORDER=
